<mxfile host="app.diagrams.net" agent="Mozilla/5.0 (Windows NT 10.0; Win64; x64) AppleWebKit/537.36 (KHTML, like Gecko) Chrome/131.0.0.0 Safari/537.36" version="25.0.3">
  <diagram id="e_dyPWSWlGN5VMfcYl_s" name="หน้า-1">
    <mxGraphModel dx="1034" dy="446" grid="1" gridSize="10" guides="1" tooltips="1" connect="1" arrows="1" fold="1" page="1" pageScale="1" pageWidth="827" pageHeight="1169" math="0" shadow="0">
      <root>
        <mxCell id="0" />
        <mxCell id="1" parent="0" />
        <mxCell id="8AxD1dq-nOSLdEXgPVUB-3" value="" style="edgeStyle=orthogonalEdgeStyle;rounded=0;orthogonalLoop=1;jettySize=auto;html=1;" edge="1" parent="1" source="8AxD1dq-nOSLdEXgPVUB-1" target="8AxD1dq-nOSLdEXgPVUB-2">
          <mxGeometry relative="1" as="geometry" />
        </mxCell>
        <mxCell id="8AxD1dq-nOSLdEXgPVUB-1" value="start" style="strokeWidth=2;html=1;shape=mxgraph.flowchart.start_1;whiteSpace=wrap;" vertex="1" parent="1">
          <mxGeometry x="364" y="60" width="100" height="60" as="geometry" />
        </mxCell>
        <mxCell id="8AxD1dq-nOSLdEXgPVUB-5" value="" style="edgeStyle=orthogonalEdgeStyle;rounded=0;orthogonalLoop=1;jettySize=auto;html=1;" edge="1" parent="1" source="8AxD1dq-nOSLdEXgPVUB-2" target="8AxD1dq-nOSLdEXgPVUB-4">
          <mxGeometry relative="1" as="geometry" />
        </mxCell>
        <mxCell id="8AxD1dq-nOSLdEXgPVUB-2" value="กำหนดตัวแปร number" style="whiteSpace=wrap;html=1;strokeWidth=2;" vertex="1" parent="1">
          <mxGeometry x="354" y="200" width="120" height="60" as="geometry" />
        </mxCell>
        <mxCell id="8AxD1dq-nOSLdEXgPVUB-7" value="" style="edgeStyle=orthogonalEdgeStyle;rounded=0;orthogonalLoop=1;jettySize=auto;html=1;" edge="1" parent="1" source="8AxD1dq-nOSLdEXgPVUB-4" target="8AxD1dq-nOSLdEXgPVUB-6">
          <mxGeometry relative="1" as="geometry" />
        </mxCell>
        <mxCell id="8AxD1dq-nOSLdEXgPVUB-4" value="สร้างตัวแปร values&lt;div&gt;เก็บค่า 1000, 900, 500, 400, 100, 90, 50, 40, 10, 9, 5, 4, 1&lt;/div&gt;" style="whiteSpace=wrap;html=1;strokeWidth=2;" vertex="1" parent="1">
          <mxGeometry x="261" y="340" width="306" height="130" as="geometry" />
        </mxCell>
        <mxCell id="8AxD1dq-nOSLdEXgPVUB-11" value="" style="edgeStyle=orthogonalEdgeStyle;rounded=0;orthogonalLoop=1;jettySize=auto;html=1;" edge="1" parent="1" source="8AxD1dq-nOSLdEXgPVUB-6" target="8AxD1dq-nOSLdEXgPVUB-10">
          <mxGeometry relative="1" as="geometry" />
        </mxCell>
        <mxCell id="8AxD1dq-nOSLdEXgPVUB-6" value="สร้างตัวแปร symbols&lt;div&gt;เก็บค่า&amp;nbsp;&quot;M&quot;, &quot;CM&quot;, &quot;D&quot;, &quot;CD&quot;, &quot;C&quot;, &quot;XC&quot;, &quot;L&quot;, &quot;XL&quot;, &quot;X&quot;, &quot;IX&quot;, &quot;V&quot;, &quot;IV&quot;, &quot;I&quot;&lt;/div&gt;" style="whiteSpace=wrap;html=1;strokeWidth=2;" vertex="1" parent="1">
          <mxGeometry x="209.5" y="550" width="409" height="130" as="geometry" />
        </mxCell>
        <mxCell id="8AxD1dq-nOSLdEXgPVUB-13" value="" style="edgeStyle=orthogonalEdgeStyle;rounded=0;orthogonalLoop=1;jettySize=auto;html=1;" edge="1" parent="1" source="8AxD1dq-nOSLdEXgPVUB-10" target="8AxD1dq-nOSLdEXgPVUB-12">
          <mxGeometry relative="1" as="geometry" />
        </mxCell>
        <mxCell id="8AxD1dq-nOSLdEXgPVUB-10" value="รับค่าจากผู้ใช้" style="shape=parallelogram;perimeter=parallelogramPerimeter;whiteSpace=wrap;html=1;fixedSize=1;strokeWidth=2;" vertex="1" parent="1">
          <mxGeometry x="354" y="795" width="120" height="60" as="geometry" />
        </mxCell>
        <mxCell id="8AxD1dq-nOSLdEXgPVUB-15" value="" style="edgeStyle=orthogonalEdgeStyle;rounded=0;orthogonalLoop=1;jettySize=auto;html=1;" edge="1" parent="1" source="8AxD1dq-nOSLdEXgPVUB-12" target="8AxD1dq-nOSLdEXgPVUB-14">
          <mxGeometry relative="1" as="geometry" />
        </mxCell>
        <mxCell id="8AxD1dq-nOSLdEXgPVUB-12" value="แสดง ตัวเลขที่ผู้ใช้ป้อน =" style="shape=parallelogram;perimeter=parallelogramPerimeter;whiteSpace=wrap;html=1;fixedSize=1;strokeWidth=2;" vertex="1" parent="1">
          <mxGeometry x="331" y="935" width="166" height="60" as="geometry" />
        </mxCell>
        <mxCell id="8AxD1dq-nOSLdEXgPVUB-19" value="" style="edgeStyle=orthogonalEdgeStyle;rounded=0;orthogonalLoop=1;jettySize=auto;html=1;" edge="1" parent="1" source="8AxD1dq-nOSLdEXgPVUB-14" target="8AxD1dq-nOSLdEXgPVUB-18">
          <mxGeometry relative="1" as="geometry" />
        </mxCell>
        <mxCell id="8AxD1dq-nOSLdEXgPVUB-28" style="edgeStyle=orthogonalEdgeStyle;rounded=0;orthogonalLoop=1;jettySize=auto;html=1;exitX=0;exitY=0.5;exitDx=0;exitDy=0;entryX=0.05;entryY=0.25;entryDx=0;entryDy=0;entryPerimeter=0;" edge="1" parent="1" source="8AxD1dq-nOSLdEXgPVUB-14" target="8AxD1dq-nOSLdEXgPVUB-29">
          <mxGeometry relative="1" as="geometry">
            <mxPoint x="160" y="1670" as="targetPoint" />
            <Array as="points">
              <mxPoint x="300" y="1110" />
              <mxPoint x="300" y="1680" />
            </Array>
          </mxGeometry>
        </mxCell>
        <mxCell id="8AxD1dq-nOSLdEXgPVUB-14" value="for i = 0 ; i &amp;lt; 13 ;&amp;nbsp; ?" style="rhombus;whiteSpace=wrap;html=1;strokeWidth=2;" vertex="1" parent="1">
          <mxGeometry x="341" y="1070" width="146" height="80" as="geometry" />
        </mxCell>
        <mxCell id="8AxD1dq-nOSLdEXgPVUB-21" value="" style="edgeStyle=orthogonalEdgeStyle;rounded=0;orthogonalLoop=1;jettySize=auto;html=1;" edge="1" parent="1" source="8AxD1dq-nOSLdEXgPVUB-18" target="8AxD1dq-nOSLdEXgPVUB-20">
          <mxGeometry relative="1" as="geometry" />
        </mxCell>
        <mxCell id="8AxD1dq-nOSLdEXgPVUB-27" value="" style="edgeStyle=orthogonalEdgeStyle;rounded=0;orthogonalLoop=1;jettySize=auto;html=1;" edge="1" parent="1" source="8AxD1dq-nOSLdEXgPVUB-18" target="8AxD1dq-nOSLdEXgPVUB-26">
          <mxGeometry relative="1" as="geometry" />
        </mxCell>
        <mxCell id="8AxD1dq-nOSLdEXgPVUB-18" value="&lt;br&gt;number &amp;gt;= values[i] ?&lt;div&gt;&lt;br/&gt;&lt;/div&gt;" style="rhombus;whiteSpace=wrap;html=1;strokeWidth=2;" vertex="1" parent="1">
          <mxGeometry x="321" y="1230" width="186" height="130" as="geometry" />
        </mxCell>
        <mxCell id="8AxD1dq-nOSLdEXgPVUB-23" value="" style="edgeStyle=orthogonalEdgeStyle;rounded=0;orthogonalLoop=1;jettySize=auto;html=1;" edge="1" parent="1" source="8AxD1dq-nOSLdEXgPVUB-20" target="8AxD1dq-nOSLdEXgPVUB-22">
          <mxGeometry relative="1" as="geometry" />
        </mxCell>
        <mxCell id="8AxD1dq-nOSLdEXgPVUB-20" value="แสดง symbols [ i ]" style="whiteSpace=wrap;html=1;strokeWidth=2;" vertex="1" parent="1">
          <mxGeometry x="620" y="1265" width="120" height="60" as="geometry" />
        </mxCell>
        <mxCell id="8AxD1dq-nOSLdEXgPVUB-25" style="edgeStyle=orthogonalEdgeStyle;rounded=0;orthogonalLoop=1;jettySize=auto;html=1;exitX=1;exitY=0.5;exitDx=0;exitDy=0;" edge="1" parent="1" source="8AxD1dq-nOSLdEXgPVUB-22" target="8AxD1dq-nOSLdEXgPVUB-24">
          <mxGeometry relative="1" as="geometry">
            <Array as="points">
              <mxPoint x="960" y="1295" />
              <mxPoint x="960" y="1680" />
              <mxPoint x="414" y="1680" />
            </Array>
          </mxGeometry>
        </mxCell>
        <mxCell id="8AxD1dq-nOSLdEXgPVUB-22" value="ลบเลขจาก number ด้วย values" style="whiteSpace=wrap;html=1;strokeWidth=2;" vertex="1" parent="1">
          <mxGeometry x="820" y="1265" width="120" height="60" as="geometry" />
        </mxCell>
        <mxCell id="8AxD1dq-nOSLdEXgPVUB-24" value="end" style="strokeWidth=2;html=1;shape=mxgraph.flowchart.start_1;whiteSpace=wrap;" vertex="1" parent="1">
          <mxGeometry x="364" y="1730" width="100" height="60" as="geometry" />
        </mxCell>
        <mxCell id="8AxD1dq-nOSLdEXgPVUB-26" value="i++" style="whiteSpace=wrap;html=1;strokeWidth=2;" vertex="1" parent="1">
          <mxGeometry x="354" y="1475" width="120" height="60" as="geometry" />
        </mxCell>
        <mxCell id="8AxD1dq-nOSLdEXgPVUB-29" value="" style="shape=waypoint;sketch=0;fillStyle=solid;size=6;pointerEvents=1;points=[];fillColor=none;resizable=0;rotatable=0;perimeter=centerPerimeter;snapToPoint=1;" vertex="1" parent="1">
          <mxGeometry x="404" y="1670" width="20" height="20" as="geometry" />
        </mxCell>
        <mxCell id="8AxD1dq-nOSLdEXgPVUB-30" value="" style="shape=waypoint;sketch=0;fillStyle=solid;size=6;pointerEvents=1;points=[];fillColor=none;resizable=0;rotatable=0;perimeter=centerPerimeter;snapToPoint=1;" vertex="1" parent="1">
          <mxGeometry x="404" y="1020" width="20" height="20" as="geometry" />
        </mxCell>
        <mxCell id="8AxD1dq-nOSLdEXgPVUB-31" style="edgeStyle=orthogonalEdgeStyle;rounded=0;orthogonalLoop=1;jettySize=auto;html=1;exitX=0.5;exitY=1;exitDx=0;exitDy=0;entryX=-0.05;entryY=0;entryDx=0;entryDy=0;entryPerimeter=0;" edge="1" parent="1" source="8AxD1dq-nOSLdEXgPVUB-26" target="8AxD1dq-nOSLdEXgPVUB-30">
          <mxGeometry relative="1" as="geometry">
            <Array as="points">
              <mxPoint x="414" y="1600" />
              <mxPoint x="270" y="1600" />
              <mxPoint x="270" y="1030" />
            </Array>
          </mxGeometry>
        </mxCell>
        <mxCell id="8AxD1dq-nOSLdEXgPVUB-33" value="T" style="text;html=1;align=center;verticalAlign=middle;resizable=0;points=[];autosize=1;strokeColor=none;fillColor=none;" vertex="1" parent="1">
          <mxGeometry x="520" y="1250" width="30" height="30" as="geometry" />
        </mxCell>
        <mxCell id="8AxD1dq-nOSLdEXgPVUB-34" value="F" style="text;html=1;align=center;verticalAlign=middle;resizable=0;points=[];autosize=1;strokeColor=none;fillColor=none;" vertex="1" parent="1">
          <mxGeometry x="365" y="1368" width="30" height="30" as="geometry" />
        </mxCell>
        <mxCell id="8AxD1dq-nOSLdEXgPVUB-35" value="T" style="text;html=1;align=center;verticalAlign=middle;resizable=0;points=[];autosize=1;strokeColor=none;fillColor=none;" vertex="1" parent="1">
          <mxGeometry x="415" y="1148" width="30" height="30" as="geometry" />
        </mxCell>
        <mxCell id="8AxD1dq-nOSLdEXgPVUB-36" value="F" style="text;html=1;align=center;verticalAlign=middle;resizable=0;points=[];autosize=1;strokeColor=none;fillColor=none;" vertex="1" parent="1">
          <mxGeometry x="325" y="1068" width="30" height="30" as="geometry" />
        </mxCell>
      </root>
    </mxGraphModel>
  </diagram>
</mxfile>
